<svg width="165" height="225" viewBox="0 0 165 225" fill="none" xmlns="http://www.w3.org/2000/svg">
<path fill-rule="evenodd" clip-rule="evenodd" d="M51.6503 91.2609C30.4783 107.251 12.6005 127.312 8.38186 150.981C6.84568 159.593 8.07415 168.306 9.22507 177.22C9.30452 177.845 10.0486 178.397 10.8856 178.45C11.7233 178.501 12.3372 178.033 12.2546 177.405C11.1275 168.663 9.89532 160.114 11.4019 151.669C15.5604 128.336 33.2792 108.601 54.1765 92.8658L54.5886 93.1348C59.0545 96.0629 66.4779 97.0999 74.6968 96.6567C86.4784 96.0227 99.9407 92.4715 108.036 88.1512C111.674 86.2092 114.233 84.0893 115.221 82.027C115.993 80.4196 115.864 78.8194 114.755 77.3005C112.388 74.0646 107.188 72.7003 100.657 72.9134C86.9964 73.3561 67.2146 80.3473 60.1498 85.1639C57.9445 86.6687 55.7574 88.2147 53.6049 89.8036C52.8043 89.3023 52.0225 88.8093 51.2855 88.3078C49.1901 86.8747 47.4357 85.3441 46.5682 83.0972C45.2212 79.595 45.8198 76.0164 47.3725 72.6172C49.8012 67.3143 54.5801 62.4578 58.4871 58.991C80.2478 39.6845 109.826 35.3828 137.993 36.5181C166.44 37.6684 193.478 44.3406 209.814 46.8945C210.654 47.0271 211.354 46.6321 211.382 46.0162C211.41 45.4002 210.749 44.7934 209.908 44.6636C193.467 42.0922 166.249 35.3968 137.613 34.2418C108.697 33.0717 78.3589 37.5286 56.0189 57.3451C51.9487 60.9561 46.9996 66.0271 44.4714 71.5494C42.7236 75.3731 42.1358 79.413 43.6524 83.3544C45.0151 86.8911 48.0937 89.0061 51.6503 91.2609ZM56.1453 91.4033L56.349 91.5387C60.2525 94.0985 66.7615 94.7682 73.9479 94.3797C85.269 93.7706 98.2113 90.3663 105.994 86.2115C108.664 84.7885 110.716 83.286 111.826 81.7704C112.74 80.5191 113.005 79.2852 112.139 78.1058C111.328 76.9899 109.985 76.2615 108.311 75.8081C106.346 75.2734 103.964 75.1073 101.325 75.1918C88.1987 75.6183 69.1953 82.342 62.4075 86.9709C60.3012 88.41 58.2099 89.8863 56.1453 91.4033Z" fill="url(#paint0_linear_1_3084)"/>
<path fill-rule="evenodd" clip-rule="evenodd" d="M13.0926 181.207C12.4777 180.936 11.7587 180.4 10.9933 179.818C9.16829 178.434 7.30585 176.668 6.38848 175.857C5.79683 175.336 4.83329 175.205 4.2342 175.559C3.63434 175.915 3.62662 176.624 4.21827 177.145C5.34335 178.138 7.83053 180.489 10.0172 181.989C11.1907 182.794 12.3254 183.359 13.2003 183.549C14.6898 183.875 15.8363 183.307 16.2388 181.657C16.7131 179.704 16.354 175.73 18.8344 173.182C19.2856 172.72 19.0732 171.995 18.3654 171.571C17.6544 171.143 16.7138 171.172 16.2619 171.636C13.8991 174.067 13.7147 177.62 13.3996 179.958C13.3389 180.402 13.1888 180.909 13.0926 181.207Z" fill="url(#paint1_linear_1_3084)"/>
<defs>
<linearGradient id="paint0_linear_1_3084" x1="52.9891" y1="81.7518" x2="68.7956" y2="122.825" gradientUnits="userSpaceOnUse">
<stop stop-color="#4199F0"/>
<stop offset="1" stop-color="white"/>
</linearGradient>
<linearGradient id="paint1_linear_1_3084" x1="6.5086" y1="173.949" x2="7.47965" y2="177.09" gradientUnits="userSpaceOnUse">
<stop stop-color="#4199F0"/>
<stop offset="1" stop-color="white"/>
</linearGradient>
</defs>
</svg>
