<svg width="95" height="95" viewBox="0 0 95 95" fill="none" xmlns="http://www.w3.org/2000/svg">
<g clip-path="url(#clip0_1_3191)">
<circle cx="48" cy="48" r="75" fill="#A2D1FF"/>
<path d="M65.6218 48.2448C59.8375 48.2448 48.2441 51.1084 48.2441 56.8112V60.4825C48.2441 61.8287 49.3613 62.9301 50.7267 62.9301H80.5169C81.8823 62.9301 82.9994 61.8287 82.9994 60.4825V56.8112C82.9994 51.1084 71.406 48.2448 65.6218 48.2448Z" fill="#007AFF"/>
<path d="M38.6993 42.3706C30.1451 42.3706 13 46.6661 13 55.2203V60.7272C13 62.7465 14.6521 64.3986 16.6713 64.3986H60.7273C62.7465 64.3986 64.3986 62.7465 64.3986 60.7272V55.2203C64.3986 46.6661 47.2535 42.3706 38.6993 42.3706Z" fill="#4199F0"/>
<path d="M49.7135 24.014C49.7135 30.1084 44.8225 35.028 38.7179 35.028C32.6133 35.028 27.6855 30.1084 27.6855 24.014C27.6855 17.9196 32.6133 13 38.7179 13C44.8225 13 49.7135 17.9196 49.7135 24.014Z" fill="#4199F0"/>
<path d="M73.21 35.5175C73.21 39.5804 69.8406 42.8601 65.6352 42.8601C61.4299 42.8601 58.0352 39.5804 58.0352 35.5175C58.0352 31.4545 61.4299 28.1748 65.6352 28.1748C69.8406 28.1748 73.21 31.4545 73.21 35.5175Z" fill="#007AFF"/>
<path d="M27.1348 52.2832H50.2641V72.1084H27.1348V52.2832Z" fill="white"/>
<path d="M53.5683 48.979H23.8306C22.0133 48.979 20.5264 50.4659 20.5264 52.2832V72.1084C20.5264 73.9257 22.0133 75.4126 23.8306 75.4126H53.5683C55.3856 75.4126 56.856 73.9257 56.856 72.1084L56.8725 52.2832C56.8725 50.4659 55.3856 48.979 53.5683 48.979ZM50.2641 72.1084H27.1348V52.2832H50.2641V72.1084Z" fill="#007AFF"/>
<rect width="11.7483" height="1.95804" rx="0.979021" transform="matrix(-1 0 0 1 41.8818 55.0979)" fill="#4199F0" fill-opacity="0.65"/>
<rect width="11.7483" height="1.95804" rx="0.979021" transform="matrix(-1 0 0 1 41.8818 59.0139)" fill="#4199F0" fill-opacity="0.65"/>
<rect width="17.1329" height="1.95804" rx="0.979021" transform="matrix(-1 0 0 1 47.2656 62.9302)" fill="#4199F0" fill-opacity="0.65"/>
<rect width="17.1329" height="1.95804" rx="0.979021" transform="matrix(-1 0 0 1 47.2656 66.8462)" fill="#4199F0" fill-opacity="0.65"/>
<path d="M44.9395 56.1738V59.7701C44.9395 60.1014 45.1997 60.3616 45.5309 60.3616H49.1272C49.281 60.3616 49.4348 60.3025 49.5413 60.1842L62.4594 47.2778L58.0233 42.8416L45.1169 55.748C44.9986 55.8663 44.9395 56.0082 44.9395 56.1738ZM65.8901 43.8472C66.3515 43.3858 66.3515 42.6405 65.8901 42.1791L63.1219 39.411C62.6605 38.9496 61.9153 38.9496 61.4539 39.411L59.289 41.5758L63.7252 46.012L65.8901 43.8472Z" fill="#61B0FF"/>
</g>
<defs>
<clipPath id="clip0_1_3191">
<rect width="95" height="95" rx="47.5" fill="white"/>
</clipPath>
</defs>
</svg>
