<svg width="95" height="95" viewBox="0 0 95 95" fill="none" xmlns="http://www.w3.org/2000/svg">
<g clip-path="url(#clip0_1_3217)">
<circle cx="48" cy="48" r="75" fill="#A2D1FF"/>
<circle cx="24.5" cy="24" r="2" fill="#A2D1FF"/>
<circle cx="31" cy="24" r="2" fill="#A2D1FF"/>
<path fill-rule="evenodd" clip-rule="evenodd" d="M23.0092 77.133L18.5185 74.5467C17.828 74.1491 17.827 73.1532 18.5165 72.7541L23.1711 70.0601C23.1975 70.0448 23.2243 70.0308 23.2512 70.018C24.7602 66.4591 28.2863 63.9626 32.3954 63.9626H65.1571C70.64 63.9626 75.0849 68.4075 75.0849 73.8904C75.0849 79.3734 70.64 83.8182 65.1571 83.8182H32.3954C28.0479 83.8182 24.3531 81.0237 23.0092 77.133Z" fill="white"/>
<circle cx="30.7409" cy="73.8078" r="2.73014" fill="#A2D1FF"/>
<circle cx="39.8415" cy="73.8078" r="2.73014" fill="#A2D1FF"/>
<circle cx="48.9421" cy="73.8078" r="2.73014" fill="#A2D1FF"/>
<circle cx="58.0417" cy="73.8078" r="2.73014" fill="#A2D1FF"/>
<circle cx="67.1423" cy="73.8078" r="2.73014" fill="#A2D1FF"/>
<path fill-rule="evenodd" clip-rule="evenodd" d="M70.0757 51.6517L74.5665 49.0654C75.2569 48.6678 75.258 47.6719 74.5684 47.2728L69.9139 44.5788C69.8874 44.5634 69.8607 44.5494 69.8338 44.5367C68.3247 40.9778 64.7987 38.4813 60.6896 38.4813H27.9279C22.4449 38.4813 18.0001 42.9261 18.0001 48.4091C18.0001 53.8921 22.4449 58.3369 27.9279 58.3369H60.6895C65.037 58.3369 68.7318 55.5424 70.0757 51.6517Z" fill="#81BDFF"/>
<circle cx="2.73014" cy="2.73014" r="2.73014" transform="matrix(-1 0 0 1 65.0742 45.5962)" fill="white"/>
<circle cx="2.73014" cy="2.73014" r="2.73014" transform="matrix(-1 0 0 1 55.9736 45.5962)" fill="white"/>
<circle cx="2.73014" cy="2.73014" r="2.73014" transform="matrix(-1 0 0 1 46.873 45.5962)" fill="white"/>
<circle cx="2.73014" cy="2.73014" r="2.73014" transform="matrix(-1 0 0 1 37.7734 45.5962)" fill="white"/>
<circle cx="2.73014" cy="2.73014" r="2.73014" transform="matrix(-1 0 0 1 28.6729 45.5962)" fill="white"/>
<path fill-rule="evenodd" clip-rule="evenodd" d="M25.7387 26.1704L21.248 23.5841C20.5575 23.1865 20.5565 22.1905 21.246 21.7914L25.9006 19.0974C25.927 19.0821 25.9538 19.0681 25.9807 19.0554C27.4897 15.4965 31.0158 13 35.1249 13H67.8866C73.3695 13 77.8144 17.4448 77.8144 22.9278C77.8144 28.4107 73.3695 32.8556 67.8866 32.8556H35.1249C30.7774 32.8556 27.0826 30.0611 25.7387 26.1704Z" fill="white"/>
<circle cx="33.4704" cy="22.845" r="2.73014" fill="#4199F0"/>
<circle cx="42.571" cy="22.845" r="2.73014" fill="#4199F0"/>
<circle cx="51.6715" cy="22.845" r="2.73014" fill="#4199F0"/>
<circle cx="60.7721" cy="22.845" r="2.73014" fill="#4199F0"/>
<circle cx="69.8727" cy="22.845" r="2.73014" fill="#4199F0"/>
<path d="M31.0428 56.0039C31.0428 56.6354 30.5309 57.1474 29.8993 57.1474H26.7385C26.1069 57.1474 25.595 56.6354 25.595 56.0039C25.595 51.4796 28.3434 49.1428 30.9447 47.1044C33.1533 45.3146 35.1655 43.6242 35.1655 40.7405C35.1655 37.3597 33.1042 35.1224 29.6686 35.1224C26.8246 35.1224 24.6998 36.8777 24.0146 39.6043C23.7455 40.6756 22.8836 41.5857 21.779 41.5857H19.5459C18.4413 41.5857 17.5289 40.6851 17.6865 39.5919C18.557 33.5552 23.3848 29.4546 29.8158 29.4546C37.1287 29.4546 41.5459 33.7303 41.5459 40.3428C41.5459 45.6626 38.1594 48.1982 35.3128 50.2366C32.9079 51.9767 31.0428 53.4683 31.0428 56.0039ZM28.5398 67.091C26.3312 67.091 24.5643 65.3011 24.5643 63.1632C24.5643 60.9757 26.3312 59.1858 28.5398 59.1858C30.6993 59.1858 32.5152 60.9757 32.5152 63.1632C32.5152 65.2514 30.6993 67.091 28.5398 67.091Z" fill="#007AFF"/>
</g>
<defs>
<clipPath id="clip0_1_3217">
<rect width="95" height="95" rx="47.5" fill="white"/>
</clipPath>
</defs>
</svg>
