<svg width="95" height="95" viewBox="0 0 95 95" fill="none" xmlns="http://www.w3.org/2000/svg">
<g clip-path="url(#clip0_1_3106)">
<circle cx="48" cy="48" r="75" fill="#A2D1FF"/>
<rect x="17" y="17" width="62.5" height="62.5" rx="10" fill="white"/>
<path d="M17 27C17 21.4772 21.4772 17 27 17H69.5C75.0228 17 79.5 21.4772 79.5 27V29.5H17V27Z" fill="#007AFF"/>
<path d="M23.7067 67.0651C23.7372 66.2099 24.512 65.7158 25.1014 66.1757L29.0799 69.2803C29.6693 69.7403 29.6312 70.8093 29.0113 71.2046L24.8271 73.8726C24.2072 74.2679 23.4704 73.693 23.5009 72.8378L23.7067 67.0651Z" fill="#4199F0"/>
<rect x="32.5" y="69" width="41" height="2" rx="1" fill="#A2D1FF"/>
<rect x="42.5" y="67" width="2" height="6" rx="1" fill="#4199F0"/>
<circle cx="24.5" cy="24" r="2" fill="#A2D1FF"/>
<circle cx="31" cy="24" r="2" fill="#A2D1FF"/>
<circle cx="37.5" cy="24" r="2" fill="#A2D1FF"/>
<path d="M55.9313 58.9533C54.7565 60.4958 56.5001 62.2394 58.0426 61.0646C59.2175 59.5221 57.4738 57.7785 55.9313 58.9533Z" fill="#4199F0"/>
<g style="mix-blend-mode:screen" opacity="0.25">
<path d="M56.3922 59.4145C56.5798 59.2269 56.6559 58.9988 56.5621 58.905C56.4683 58.8112 56.2402 58.8873 56.0526 59.0749C55.865 59.2625 55.7889 59.4906 55.8827 59.5844C55.9765 59.6782 56.2046 59.6021 56.3922 59.4145Z" fill="black"/>
</g>
<path d="M56.3242 47.9623H61.7186" stroke="#007AFF" stroke-width="2" stroke-miterlimit="10"/>
<path d="M34.3105 48.0059H39.705" stroke="#007AFF" stroke-width="2" stroke-miterlimit="10"/>
<path d="M40.1035 37.1016L43.6566 41.1606" stroke="#007AFF" stroke-width="2" stroke-miterlimit="10"/>
<path d="M56.1859 36.9275L52.6328 40.9865" stroke="#007AFF" stroke-width="2" stroke-miterlimit="10"/>
<path d="M56.0989 58.8664L52.5459 54.8074" stroke="#007AFF" stroke-width="2" stroke-miterlimit="10"/>
<path d="M40.0176 59.0405L43.5706 54.9814" stroke="#007AFF" stroke-width="2" stroke-miterlimit="10"/>
<path d="M44.1287 40.9969L43.8152 40.9936L43.6757 41.2744L40.4565 47.7564L40.346 47.9788L40.4565 48.2012L43.6322 54.5962L43.7701 54.8738H44.0801H52.7807H53.0954L53.2315 54.5901L56.3203 48.1516L56.4284 47.9262L56.313 47.7045L53.0067 41.353L52.8682 41.087L52.5684 41.0839L44.1287 40.9969Z" stroke="#007AFF" stroke-miterlimit="10"/>
<path d="M44.3828 42.6124L44.5777 42.2198L45.016 42.2244" stroke="#007AFF" stroke-width="0.47812" stroke-miterlimit="10"/>
<path d="M45.333 42.2201L51.5104 42.2838" stroke="#007AFF" stroke-width="0.47812" stroke-miterlimit="10" stroke-dasharray="0.96 0.96"/>
<path d="M51.6689 42.293L52.1072 42.2975L52.3095 42.6862" stroke="#007AFF" stroke-width="0.47812" stroke-miterlimit="10"/>
<path d="M52.4766 42.8701L54.7968 47.3275" stroke="#007AFF" stroke-width="0.47812" stroke-miterlimit="10" stroke-dasharray="0.96 0.96"/>
<path d="M54.8535 47.575L55.0559 47.9637L54.8663 48.3588" stroke="#007AFF" stroke-width="0.47812" stroke-miterlimit="10"/>
<path d="M54.7272 48.6501L52.5605 53.1666" stroke="#007AFF" stroke-width="0.47812" stroke-miterlimit="10" stroke-dasharray="0.96 0.96"/>
<path d="M52.4911 53.3123L52.3015 53.7074H51.8633" stroke="#007AFF" stroke-width="0.47812" stroke-miterlimit="10"/>
<path d="M51.5875 53.7075H45.1152" stroke="#007AFF" stroke-width="0.47812" stroke-miterlimit="10" stroke-dasharray="0.96 0.96"/>
<path d="M44.9769 53.7074H44.5387L44.3438 53.3149" stroke="#007AFF" stroke-width="0.47812" stroke-miterlimit="10"/>
<path d="M44.2003 53.0255L41.9727 48.5397" stroke="#007AFF" stroke-width="0.47812" stroke-miterlimit="10" stroke-dasharray="0.96 0.96"/>
<path d="M41.901 48.3949L41.7061 48.0024L41.901 47.6099" stroke="#007AFF" stroke-width="0.47812" stroke-miterlimit="10"/>
<path d="M42.0195 47.372L44.3243 42.7313" stroke="#007AFF" stroke-width="0.47812" stroke-miterlimit="10" stroke-dasharray="0.96 0.96"/>
<path d="M43.7335 43.5452C45.0577 43.5452 46.1312 42.4718 46.1312 41.1476C46.1312 39.8234 45.0577 38.75 43.7335 38.75C42.4094 38.75 41.3359 39.8234 41.3359 41.1476C41.3359 42.4718 42.4094 43.5452 43.7335 43.5452Z" fill="#4199F0"/>
<g style="mix-blend-mode:screen" opacity="0.25">
<path d="M42.7445 40.1587C43.0566 39.8466 43.1831 39.4671 43.0271 39.311C42.871 39.155 42.4915 39.2815 42.1794 39.5936C41.8673 39.9057 41.7408 40.2852 41.8968 40.4413C42.0529 40.5973 42.4324 40.4708 42.7445 40.1587Z" fill="black"/>
</g>
<path d="M52.2804 43.5452C53.6046 43.5452 54.678 42.4718 54.678 41.1476C54.678 39.8234 53.6046 38.75 52.2804 38.75C50.9563 38.75 49.8828 39.8234 49.8828 41.1476C49.8828 42.4718 50.9563 43.5452 52.2804 43.5452Z" fill="#4199F0"/>
<g style="mix-blend-mode:screen" opacity="0.25">
<path d="M51.2914 40.1587C51.6035 39.8466 51.73 39.4671 51.5739 39.311C51.4179 39.155 51.0384 39.2815 50.7263 39.5936C50.4141 39.9057 50.2876 40.2852 50.4437 40.4413C50.5998 40.5973 50.9793 40.4708 51.2914 40.1587Z" fill="black"/>
</g>
<path d="M56.0382 50.3976C57.3624 50.3976 58.4358 49.3242 58.4358 48C58.4358 46.6759 57.3624 45.6024 56.0382 45.6024C54.7141 45.6024 53.6406 46.6759 53.6406 48C53.6406 49.3242 54.7141 50.3976 56.0382 50.3976Z" fill="#4199F0"/>
<g style="mix-blend-mode:screen" opacity="0.25">
<path d="M55.0492 47.011C55.3613 46.6989 55.4878 46.3194 55.3317 46.1633C55.1757 46.0073 54.7962 46.1338 54.4841 46.4459C54.172 46.758 54.0455 47.1375 54.2015 47.2935C54.3576 47.4496 54.7371 47.3231 55.0492 47.011Z" fill="black"/>
</g>
<path d="M40.6388 50.3976C41.963 50.3976 43.0364 49.3242 43.0364 48C43.0364 46.6759 41.963 45.6024 40.6388 45.6024C39.3147 45.6024 38.2412 46.6759 38.2412 48C38.2412 49.3242 39.3147 50.3976 40.6388 50.3976Z" fill="#4199F0"/>
<g style="mix-blend-mode:screen" opacity="0.25">
<path d="M39.6498 47.011C39.9619 46.6989 40.0884 46.3194 39.9323 46.1633C39.7763 46.0073 39.3968 46.1338 39.0847 46.4459C38.7725 46.758 38.646 47.1375 38.8021 47.2935C38.9581 47.4496 39.3377 47.3231 39.6498 47.011Z" fill="black"/>
</g>
<path d="M43.7335 57.2501C45.0577 57.2501 46.1312 56.1766 46.1312 54.8524C46.1312 53.5283 45.0577 52.4548 43.7335 52.4548C42.4094 52.4548 41.3359 53.5283 41.3359 54.8524C41.3359 56.1766 42.4094 57.2501 43.7335 57.2501Z" fill="#4199F0"/>
<g style="mix-blend-mode:screen" opacity="0.25">
<path d="M42.7445 53.8634C43.0566 53.5513 43.1831 53.1718 43.0271 53.0157C42.871 52.8597 42.4915 52.9862 42.1794 53.2983C41.8673 53.6104 41.7408 53.9899 41.8968 54.146C42.0529 54.302 42.4324 54.1755 42.7445 53.8634Z" fill="black"/>
</g>
<path d="M52.3537 57.2499C53.6778 57.2499 54.7513 56.1765 54.7513 54.8523C54.7513 53.5282 53.6778 52.4547 52.3537 52.4547C51.0295 52.4547 49.9561 53.5282 49.9561 54.8523C49.9561 56.1765 51.0295 57.2499 52.3537 57.2499Z" fill="#4199F0"/>
<g style="mix-blend-mode:screen" opacity="0.25">
<path d="M51.3646 53.8633C51.6767 53.5512 51.8032 53.1717 51.6472 53.0156C51.4911 52.8595 51.1116 52.9861 50.7995 53.2982C50.4874 53.6103 50.3609 53.9898 50.5169 54.1458C50.673 54.3019 51.0525 54.1754 51.3646 53.8633Z" fill="black"/>
</g>
<path d="M61.4567 46.9463C60.2819 48.4888 62.0255 50.2325 63.568 49.0577C64.7429 47.5152 62.9992 45.7715 61.4567 46.9463Z" fill="#4199F0"/>
<g style="mix-blend-mode:screen" opacity="0.25">
<path d="M61.9176 47.4076C62.1052 47.22 62.1812 46.9919 62.0874 46.8981C61.9937 46.8043 61.7655 46.8803 61.5779 47.0679C61.3904 47.2555 61.3143 47.4836 61.4081 47.5774C61.5019 47.6712 61.73 47.5952 61.9176 47.4076Z" fill="black"/>
</g>
<path d="M55.1911 35.6354C54.0163 37.1779 55.7599 38.9216 57.3024 37.7467C58.4772 36.2042 56.7336 34.4606 55.1911 35.6354Z" fill="#4199F0"/>
<g style="mix-blend-mode:screen" opacity="0.25">
<path d="M55.652 36.0967C55.8396 35.9091 55.9156 35.681 55.8218 35.5872C55.728 35.4934 55.4999 35.5694 55.3123 35.757C55.1247 35.9446 55.0487 36.1727 55.1425 36.2665C55.2363 36.3603 55.4644 36.2843 55.652 36.0967Z" fill="black"/>
</g>
<path d="M39.0524 35.94C37.8776 37.4825 39.6212 39.2261 41.1637 38.0513C42.3386 36.5088 40.5949 34.7652 39.0524 35.94Z" fill="#4199F0"/>
<g style="mix-blend-mode:screen" opacity="0.25">
<path d="M39.5133 36.4012C39.7009 36.2136 39.7769 35.9855 39.6832 35.8917C39.5894 35.7979 39.3612 35.874 39.1737 36.0616C38.9861 36.2492 38.91 36.4773 39.0038 36.5711C39.0976 36.6649 39.3257 36.5888 39.5133 36.4012Z" fill="black"/>
</g>
<path d="M33.1354 46.9028C31.9606 48.4453 33.7042 50.1889 35.2467 49.0141C36.4216 47.4716 34.6779 45.7279 33.1354 46.9028Z" fill="#4199F0"/>
<g style="mix-blend-mode:screen" opacity="0.25">
<path d="M33.5973 47.364C33.7849 47.1764 33.8609 46.9483 33.7671 46.8545C33.6733 46.7607 33.4452 46.8368 33.2576 47.0243C33.07 47.2119 32.994 47.44 33.0878 47.5338C33.1816 47.6276 33.4097 47.5516 33.5973 47.364Z" fill="black"/>
</g>
<path d="M38.3991 58.5617C37.2243 60.1042 38.9679 61.8478 40.5104 60.673C41.6852 59.1305 39.9416 57.3869 38.3991 58.5617Z" fill="#4199F0"/>
<g style="mix-blend-mode:screen" opacity="0.25">
<path d="M38.861 59.0229C39.0486 58.8353 39.1246 58.6072 39.0308 58.5134C38.937 58.4196 38.7089 58.4957 38.5213 58.6833C38.3337 58.8709 38.2577 59.099 38.3515 59.1928C38.4453 59.2866 38.6734 59.2105 38.861 59.0229Z" fill="black"/>
</g>
</g>
<defs>
<clipPath id="clip0_1_3106">
<rect width="95" height="95" rx="47.5" fill="white"/>
</clipPath>
</defs>
</svg>
